# xmcd
#
# Track frame offsets:
#	150
#	17945
#	34733
#	49354
#	67414
#	86079
#	104504
#	116373
#	134342
#	156859
#	173410
#	191206
#	209219
#	228875
#	245581
#	271250
#
# Disc length: 3631 seconds
#
# Revision: 1
# Processed by: cddbd v1.5.2PL0 Copyright (c) Steve Scherf et al.
# Submitted via: audiograbber 1.83.01
#
DISCID=ef0e2d10
DTITLE=Travis Tritt - CBA90045
DYEAR=1900
DGENRE=
TTITLE0=Anymore
TTITLE1=Can I Trust You With My Heart
TTITLE2=Country Club
TTITLE3=Drift Off To Dream
TTITLE4=I'm Gonna Be Somebody
TTITLE5=Help Me Hold On
TTITLE6=Here's A Quarter
TTITLE7=If I Lost You
TTITLE8=Lord Have Mercy On The Working Man
TTITLE9=More Than You'll Ever Know
TTITLE10=No More Looking Over My Shoulder
TTITLE11=Nothing Short Of Dying
TTITLE12=Put Some Drive In Your Country
TTITLE13=Ten Feet Tall and Bulletproof
TTITLE14=T-R-O-U-B-L-E
TTITLE15=Bad Track
EXTD=
EXTT0=
EXTT1=
EXTT2=
EXTT3=
EXTT4=
EXTT5=
EXTT6=
EXTT7=
EXTT8=
EXTT9=
EXTT10=
EXTT11=
EXTT12=
EXTT13=
EXTT14=
EXTT15=
PLAYORDER=
